# xmcd CD database file
#
# Track frame offsets:
#	150
#	3848
#	26928
#	56439
#	81093
#	106477
#	129594
#	154993
#	180687
#	205693
#	229608
#	254175
#	273823
#	295861
#	321696
#	345355
#
# Disc length: 4736 seconds
#
# Revision: 3
# Processed by: cddbd v1.5.2PL0 Copyright (c) Steve Scherf et al.
# Submitted via: CDex 1.70beta2
#
DISCID=e5127e10
DTITLE=Various Artist - Billy Paul Williams [The Porter Project]
DYEAR=2004
DGENRE=Jazz
TTITLE0=Billy Paul Williams - In The Still Of The Night
TTITLE1=Billy Paul Williams - Night And Day
TTITLE2=Billy Paul Williams - Easy To Love
TTITLE3=Billy Paul Williams - Love For Sale
TTITLE4=Billy Paul Williams - Miss Otis Regrets
TTITLE5=Billy Paul Williams - I Love Paris
TTITLE6=Billy Paul Williams - How Could We Be Wrong
TTITLE7=Billy Paul Williams - Gigolo
TTITLE8=Billy Paul Williams - I've Got You Under My Skin
TTITLE9=Billy Paul Williams - Begin The Beguine
TTITLE10=Billy Paul Williams - Why Can't You Behave
TTITLE11=Charles Afton - Be A Clown
TTITLE12=Billy Paul Williams - You Do Something To Me
TTITLE13=Billy Paul Williams - Blow, Gabriel Blow
TTITLE14=Billy Paul Williams - At Long Last Love
TTITLE15=Billy Paul Williams - In The Still Of The Night (Reprise)
EXTD=YEAR: 2004
EXTT0=
EXTT1=
EXTT2=
EXTT3=
EXTT4=
EXTT5=
EXTT6=
EXTT7=
EXTT8=
EXTT9=
EXTT10=
EXTT11=
EXTT12=
EXTT13=
EXTT14=
EXTT15=
PLAYORDER=
